<svg xmlns="http://www.w3.org/2000/svg" viewBox="0 0 1200 2000" preserveAspectRatio="xMidYMid slice"><defs><radialGradient id="sky"><stop stop-color="#0b1b46"/><stop offset="1" stop-color="#010410"/></radialGradient><radialGradient id="nebula"><stop stop-color="#17b7f1" stop-opacity=".75"/><stop offset=".45" stop-color="#b47aff" stop-opacity=".32"/><stop offset="1" stop-color="#b47aff" stop-opacity="0"/></radialGradient><radialGradient id="nebula2"><stop stop-color="#b47aff" stop-opacity=".55"/><stop offset="1" stop-color="#17b7f1" stop-opacity="0"/></radialGradient><radialGradient id="planet"><stop stop-color="#c6f6ff"/><stop offset=".35" stop-color="#17b7f1"/><stop offset="1" stop-color="#0b1b46"/></radialGradient></defs><rect width="1200" height="2000" fill="url(#sky)"/><ellipse cx="491" cy="974" rx="520" ry="750" fill="url(#nebula)" transform="rotate(2 491 974)"/><ellipse cx="358" cy="449" rx="420" ry="650" fill="url(#nebula2)" transform="rotate(72 358 449)"/><circle cx="491.4" cy="183.1" r="1.16" fill="#e9f8ff" opacity="0.90"/><circle cx="85.3" cy="1403.7" r="2.35" fill="#e9f8ff" opacity="0.88"/><circle cx="318.2" cy="940.7" r="2.05" fill="#e9f8ff" opacity="0.39"/><circle cx="725.1" cy="857.9" r="0.56" fill="#e9f8ff" opacity="0.71"/><circle cx="944.7" cy="1246.4" r="2.01" fill="#e9f8ff" opacity="0.76"/><circle cx="873.6" cy="496.5" r="0.80" fill="#e9f8ff" opacity="0.94"/><circle cx="535.0" cy="398.8" r="0.90" fill="#e9f8ff" opacity="0.65"/><circle cx="357.3" cy="1107.4" r="1.21" fill="#e9f8ff" opacity="0.29"/><circle cx="454.6" cy="1496.0" r="1.97" fill="#e9f8ff" opacity="0.86"/><circle cx="203.9" cy="936.5" r="1.77" fill="#e9f8ff" opacity="0.37"/><circle cx="913.1" cy="1034.2" r="1.72" fill="#e9f8ff" opacity="0.79"/><circle cx="272.3" cy="348.0" r="2.69" fill="#e9f8ff" opacity="0.64"/><circle cx="1182.8" cy="1629.4" r="2.41" fill="#e9f8ff" opacity="0.62"/><circle cx="258.3" cy="1609.4" r="1.35" fill="#e9f8ff" opacity="0.43"/><circle cx="790.7" cy="1865.8" r="1.11" fill="#e9f8ff" opacity="0.69"/><circle cx="475.2" cy="1801.9" r="0.94" fill="#e9f8ff" opacity="0.92"/><circle cx="487.6" cy="1267.9" r="1.40" fill="#e9f8ff" opacity="0.91"/><circle cx="9.0" cy="855.6" r="2.12" fill="#e9f8ff" opacity="0.26"/><circle cx="589.9" cy="398.7" r="1.54" fill="#e9f8ff" opacity="0.29"/><circle cx="649.0" cy="709.3" r="2.06" fill="#e9f8ff" opacity="0.60"/><circle cx="298.7" cy="81.8" r="1.01" fill="#e9f8ff" opacity="0.59"/><circle cx="993.4" cy="1595.9" r="0.66" fill="#e9f8ff" opacity="0.42"/><circle cx="391.8" cy="1749.5" r="1.02" fill="#e9f8ff" opacity="0.34"/><circle cx="1129.4" cy="1452.7" r="0.98" fill="#e9f8ff" opacity="0.26"/><circle cx="892.4" cy="915.1" r="1.40" fill="#e9f8ff" opacity="0.73"/><circle cx="1089.2" cy="456.1" r="1.44" fill="#e9f8ff" opacity="0.80"/><circle cx="911.5" cy="1770.9" r="2.57" fill="#e9f8ff" opacity="0.36"/><circle cx="279.8" cy="682.3" r="1.97" fill="#e9f8ff" opacity="0.90"/><circle cx="666.3" cy="910.6" r="1.51" fill="#e9f8ff" opacity="0.52"/><circle cx="289.3" cy="891.9" r="2.07" fill="#e9f8ff" opacity="0.70"/><circle cx="873.0" cy="177.0" r="1.75" fill="#e9f8ff" opacity="0.75"/><circle cx="266.5" cy="440.8" r="1.70" fill="#e9f8ff" opacity="0.48"/><circle cx="714.7" cy="634.9" r="1.93" fill="#e9f8ff" opacity="0.73"/><circle cx="476.9" cy="314.4" r="0.67" fill="#e9f8ff" opacity="0.27"/><circle cx="384.4" cy="1668.4" r="0.52" fill="#e9f8ff" opacity="0.76"/><circle cx="833.1" cy="1288.6" r="0.95" fill="#e9f8ff" opacity="0.28"/><circle cx="1003.1" cy="1203.8" r="1.19" fill="#e9f8ff" opacity="0.30"/><circle cx="400.3" cy="1214.5" r="0.85" fill="#e9f8ff" opacity="0.55"/><circle cx="712.7" cy="1056.9" r="1.32" fill="#e9f8ff" opacity="0.62"/><circle cx="276.5" cy="1428.6" r="0.88" fill="#e9f8ff" opacity="0.75"/><circle cx="143.8" cy="1406.3" r="0.88" fill="#e9f8ff" opacity="0.59"/><circle cx="248.2" cy="288.2" r="1.49" fill="#e9f8ff" opacity="0.68"/><circle cx="459.0" cy="390.5" r="1.18" fill="#e9f8ff" opacity="0.89"/><circle cx="20.9" cy="1831.3" r="1.54" fill="#e9f8ff" opacity="0.83"/><circle cx="1170.4" cy="830.8" r="1.90" fill="#e9f8ff" opacity="0.51"/><circle cx="224.4" cy="1561.8" r="1.78" fill="#e9f8ff" opacity="0.82"/><circle cx="133.2" cy="78.8" r="1.19" fill="#e9f8ff" opacity="0.40"/><circle cx="793.4" cy="1359.7" r="2.52" fill="#e9f8ff" opacity="0.81"/><circle cx="513.0" cy="989.2" r="0.75" fill="#e9f8ff" opacity="0.75"/><circle cx="323.0" cy="1516.4" r="1.91" fill="#e9f8ff" opacity="0.71"/><circle cx="729.3" cy="17.5" r="0.61" fill="#e9f8ff" opacity="0.50"/><circle cx="1198.9" cy="1894.6" r="1.50" fill="#e9f8ff" opacity="0.26"/><circle cx="973.2" cy="442.4" r="1.24" fill="#e9f8ff" opacity="0.35"/><circle cx="103.3" cy="213.4" r="1.57" fill="#e9f8ff" opacity="0.47"/><circle cx="1100.4" cy="713.7" r="1.92" fill="#e9f8ff" opacity="0.91"/><circle cx="1095.0" cy="1459.0" r="1.46" fill="#e9f8ff" opacity="0.91"/><circle cx="699.1" cy="1924.9" r="1.97" fill="#e9f8ff" opacity="0.92"/><circle cx="864.9" cy="419.2" r="0.64" fill="#e9f8ff" opacity="0.62"/><circle cx="133.3" cy="410.8" r="0.54" fill="#e9f8ff" opacity="0.43"/><circle cx="166.9" cy="1343.9" r="2.64" fill="#e9f8ff" opacity="0.34"/><circle cx="160.3" cy="1470.3" r="1.41" fill="#e9f8ff" opacity="0.42"/><circle cx="622.6" cy="730.2" r="2.06" fill="#e9f8ff" opacity="0.72"/><circle cx="124.0" cy="213.7" r="0.92" fill="#e9f8ff" opacity="0.53"/><circle cx="102.6" cy="1232.6" r="0.95" fill="#e9f8ff" opacity="0.46"/><circle cx="722.8" cy="1535.8" r="0.78" fill="#e9f8ff" opacity="0.86"/><circle cx="1081.4" cy="698.0" r="1.53" fill="#e9f8ff" opacity="0.85"/><circle cx="552.5" cy="1213.4" r="1.78" fill="#e9f8ff" opacity="0.45"/><circle cx="768.0" cy="326.0" r="1.95" fill="#e9f8ff" opacity="0.55"/><circle cx="824.2" cy="127.7" r="2.56" fill="#e9f8ff" opacity="0.65"/><circle cx="211.5" cy="1954.2" r="1.40" fill="#e9f8ff" opacity="0.91"/><circle cx="257.6" cy="1612.3" r="1.28" fill="#e9f8ff" opacity="0.80"/><circle cx="1181.4" cy="467.8" r="1.65" fill="#e9f8ff" opacity="0.80"/><circle cx="548.5" cy="1925.8" r="2.37" fill="#e9f8ff" opacity="0.30"/><circle cx="423.4" cy="1335.4" r="2.54" fill="#e9f8ff" opacity="0.66"/><circle cx="812.2" cy="1849.2" r="2.01" fill="#e9f8ff" opacity="0.72"/><circle cx="489.3" cy="1268.9" r="2.67" fill="#e9f8ff" opacity="0.93"/><circle cx="201.2" cy="1409.0" r="0.64" fill="#e9f8ff" opacity="0.27"/><circle cx="1142.9" cy="8.6" r="0.66" fill="#e9f8ff" opacity="0.52"/><circle cx="298.3" cy="1724.2" r="0.77" fill="#e9f8ff" opacity="0.82"/><circle cx="140.4" cy="1233.2" r="1.66" fill="#e9f8ff" opacity="0.28"/><circle cx="84.3" cy="1979.8" r="1.11" fill="#e9f8ff" opacity="0.40"/><circle cx="985.9" cy="595.5" r="2.37" fill="#e9f8ff" opacity="0.86"/><circle cx="281.6" cy="1523.7" r="2.38" fill="#e9f8ff" opacity="0.35"/><circle cx="61.6" cy="881.8" r="1.05" fill="#e9f8ff" opacity="0.63"/><circle cx="271.3" cy="1089.8" r="0.54" fill="#e9f8ff" opacity="0.62"/><circle cx="1133.7" cy="298.0" r="1.65" fill="#e9f8ff" opacity="0.66"/><circle cx="787.0" cy="1145.4" r="0.62" fill="#e9f8ff" opacity="0.76"/><circle cx="832.3" cy="1878.7" r="0.90" fill="#e9f8ff" opacity="0.62"/><circle cx="382.2" cy="1364.2" r="2.54" fill="#e9f8ff" opacity="0.25"/><circle cx="307.5" cy="23.2" r="2.60" fill="#e9f8ff" opacity="0.36"/><circle cx="73.4" cy="1223.4" r="0.90" fill="#e9f8ff" opacity="0.89"/><circle cx="1059.6" cy="155.2" r="1.78" fill="#e9f8ff" opacity="0.75"/><circle cx="558.4" cy="1727.0" r="0.74" fill="#e9f8ff" opacity="0.94"/><circle cx="544.2" cy="1508.2" r="2.48" fill="#e9f8ff" opacity="0.50"/><circle cx="408.6" cy="253.0" r="1.13" fill="#e9f8ff" opacity="0.45"/><circle cx="753.4" cy="1035.4" r="1.10" fill="#e9f8ff" opacity="0.57"/><circle cx="37.8" cy="526.3" r="1.38" fill="#e9f8ff" opacity="0.32"/><circle cx="970.7" cy="445.1" r="1.19" fill="#e9f8ff" opacity="0.35"/><circle cx="644.4" cy="1716.1" r="1.26" fill="#e9f8ff" opacity="0.79"/><circle cx="1101.5" cy="360.8" r="2.55" fill="#e9f8ff" opacity="0.83"/><circle cx="529.8" cy="658.8" r="2.08" fill="#e9f8ff" opacity="0.51"/><circle cx="1178.9" cy="1606.3" r="1.99" fill="#e9f8ff" opacity="0.80"/><circle cx="791.5" cy="1205.6" r="1.70" fill="#e9f8ff" opacity="0.75"/><circle cx="644.0" cy="1615.6" r="1.42" fill="#e9f8ff" opacity="0.79"/><circle cx="1190.4" cy="695.0" r="1.30" fill="#e9f8ff" opacity="0.41"/><circle cx="1001.4" cy="1968.9" r="1.17" fill="#e9f8ff" opacity="0.82"/><circle cx="594.7" cy="1550.9" r="1.84" fill="#e9f8ff" opacity="0.92"/><circle cx="1049.3" cy="1051.6" r="0.67" fill="#e9f8ff" opacity="0.95"/><circle cx="797.0" cy="4.5" r="1.19" fill="#e9f8ff" opacity="0.70"/><circle cx="285.6" cy="1840.4" r="1.94" fill="#e9f8ff" opacity="0.41"/><circle cx="507.8" cy="1942.7" r="0.75" fill="#e9f8ff" opacity="0.83"/><circle cx="888.1" cy="813.0" r="0.64" fill="#e9f8ff" opacity="0.40"/><circle cx="1123.4" cy="1880.4" r="1.76" fill="#e9f8ff" opacity="0.32"/><circle cx="1069.6" cy="1983.4" r="1.93" fill="#e9f8ff" opacity="0.54"/><circle cx="268.5" cy="1058.1" r="2.26" fill="#e9f8ff" opacity="0.45"/><circle cx="208.9" cy="61.8" r="1.90" fill="#e9f8ff" opacity="0.30"/><circle cx="714.9" cy="664.7" r="1.46" fill="#e9f8ff" opacity="0.79"/><circle cx="156.2" cy="740.3" r="2.63" fill="#e9f8ff" opacity="0.47"/><circle cx="1073.6" cy="185.4" r="2.43" fill="#e9f8ff" opacity="0.89"/><circle cx="313.2" cy="102.4" r="1.57" fill="#e9f8ff" opacity="0.46"/><circle cx="663.4" cy="873.5" r="2.38" fill="#e9f8ff" opacity="0.57"/><circle cx="888.9" cy="1158.8" r="1.35" fill="#e9f8ff" opacity="0.55"/><circle cx="553.7" cy="349.2" r="1.24" fill="#e9f8ff" opacity="0.28"/><circle cx="1129.9" cy="1506.9" r="0.59" fill="#e9f8ff" opacity="0.74"/><circle cx="782.3" cy="321.4" r="2.06" fill="#e9f8ff" opacity="0.77"/><circle cx="926.1" cy="116.6" r="0.66" fill="#e9f8ff" opacity="0.90"/><circle cx="948.6" cy="1435.8" r="1.12" fill="#e9f8ff" opacity="0.79"/><circle cx="990.8" cy="1239.9" r="2.22" fill="#e9f8ff" opacity="0.44"/><circle cx="581.3" cy="1247.1" r="0.78" fill="#e9f8ff" opacity="0.28"/><circle cx="416.6" cy="1446.5" r="2.46" fill="#e9f8ff" opacity="0.70"/><g opacity=".65"><ellipse cx="491" cy="974" rx="130" ry="240" fill="none" stroke="#17b7f1" stroke-width="2" opacity="0.34" transform="rotate(2 491 974)"/><ellipse cx="491" cy="974" rx="195" ry="330" fill="none" stroke="#b47aff" stroke-width="3" opacity="0.29" transform="rotate(2 491 974)"/><ellipse cx="491" cy="974" rx="260" ry="420" fill="none" stroke="#17b7f1" stroke-width="2" opacity="0.24" transform="rotate(2 491 974)"/></g><circle cx="960" cy="990" r="55" fill="url(#planet)" opacity=".7"/><path d="M0 1748 Q600 1466 1200 1897" fill="none" stroke="#17b7f1" stroke-opacity=".18" stroke-width="12"/></svg>